<mxfile host="app.diagrams.net" modified="2023-10-06T20:36:48.575Z" agent="Mozilla/5.0 (Windows NT 10.0; Win64; x64) AppleWebKit/537.36 (KHTML, like Gecko) Chrome/117.0.0.0 Safari/537.36" version="22.0.3" etag="Nlre-PUnRS-HAwho_jC_" type="github">
  <diagram name="PÃ¡gina-1" id="57j4O2b511FvN6e_z0Tw">
    <mxGraphModel>
      <root>
        <mxCell id="0" />
        <mxCell id="1" parent="0" />
      </root>
    </mxGraphModel>
  </diagram>
</mxfile>
